<svg width="61" height="61" viewBox="0 0 61 61" fill="none" xmlns="http://www.w3.org/2000/svg">
<mask id="mask0_111_2476" style="mask-type:luminance" maskUnits="userSpaceOnUse" x="8" y="8" width="45" height="45">
<path d="M52.4225 8.49567L52.5044 52.4225L8.57752 52.5044L8.49567 8.57751L52.4225 8.49567Z" fill="white"/>
</mask>
<g mask="url(#mask0_111_2476)">
<mask id="mask1_111_2476" style="mask-type:luminance" maskUnits="userSpaceOnUse" x="8" y="8" width="45" height="45">
<path d="M17.2522 17.301C17.2546 18.6289 17.2571 19.9569 17.2596 21.2848C17.2616 22.3461 17.6032 24.0822 16.9039 24.975C16.0739 26.035 14.9355 26.9513 13.986 27.9043C13.1124 28.7813 12.2386 29.6586 11.365 30.5356C12.2419 31.4094 13.1189 32.2836 13.9958 33.1572C14.9488 34.107 16.0907 35.0181 16.9245 36.0755C17.6275 36.9659 17.2921 38.7036 17.294 39.7644C17.2965 41.0922 17.299 42.4201 17.3015 43.7484C18.6292 43.7459 19.9575 43.7435 21.286 43.741C22.3471 43.739 24.0834 43.3969 24.976 44.0962C26.036 44.9261 26.9524 46.0651 27.9053 47.0144C28.7823 47.8882 29.6592 48.7618 30.5363 49.6359C31.4104 48.7585 32.284 47.8816 33.1578 47.0046C34.1071 46.0512 35.0188 44.9094 36.0756 44.0755C36.966 43.3725 38.7046 43.7085 39.7649 43.7065C41.0932 43.7041 42.4215 43.7016 43.7494 43.6991C43.7469 42.3708 43.7445 41.0429 43.742 39.7151C43.74 38.6538 43.3984 36.9179 44.0972 36.0249C44.9271 34.9649 46.0661 34.0487 47.0154 33.0957C47.8892 32.2188 48.7629 31.3414 49.6366 30.4643C48.7597 29.5905 47.8826 28.7165 47.0056 27.8428C46.0522 26.8931 44.9109 25.9816 44.0765 24.9244C43.3739 24.0339 43.7095 22.2963 43.7075 21.2355C43.7051 19.9076 43.7026 18.5797 43.7001 17.2517C42.3722 17.2542 41.0439 17.2567 39.7156 17.2591C38.6545 17.2611 36.9176 17.6033 36.025 16.9039C34.965 16.0738 34.0491 14.935 33.0963 13.9856C32.2192 13.1118 31.3424 12.238 30.465 11.364C29.5912 12.2413 28.7175 13.1183 27.8437 13.9954C26.8939 14.9487 25.9828 16.0904 24.9254 16.9246C24.0354 17.6274 22.2969 17.2916 21.2367 17.2936C19.9082 17.296 18.5799 17.2985 17.2522 17.301ZM8.57962 30.5408C8.57842 29.8932 9.21165 29.4275 9.62914 29.0085C10.3174 28.3178 11.0057 27.6269 11.6938 26.9361C12.7813 25.8444 13.8689 24.7527 14.9563 23.6611C14.9538 22.2948 14.9512 20.9283 14.9487 19.562C14.947 18.6955 14.9454 17.8288 14.9438 16.9623C14.9428 16.4101 14.8494 15.766 15.2786 15.3351C15.7066 14.9054 16.3528 14.9953 16.9045 14.9943C17.7712 14.9927 18.6383 14.991 19.5049 14.9894C20.8712 14.9869 22.2379 14.9843 23.6045 14.9818C24.7189 13.8631 25.8332 12.7445 26.9475 11.6258C27.6089 10.9619 28.2701 10.2981 28.9315 9.63438C29.3485 9.21551 29.8094 8.58002 30.4598 8.57881C31.1108 8.5776 31.5732 9.21101 31.9923 9.62868C32.656 10.2899 33.3193 10.9513 33.9835 11.6127C35.1022 12.7272 36.2207 13.8417 37.3392 14.9562C38.7058 14.9537 40.0721 14.9511 41.4388 14.9486C42.3054 14.9469 43.172 14.9453 44.0386 14.9437C44.5912 14.9427 45.2353 14.8493 45.6663 15.2785C46.0958 15.7067 46.0062 16.3529 46.0072 16.9044C46.0088 17.7709 46.0104 18.6376 46.012 19.5041C46.0146 20.8704 46.0171 22.2369 46.0197 23.6032C47.1382 24.7177 48.2566 25.8322 49.3753 26.9467C50.039 27.6081 50.7029 28.2695 51.3666 28.9307C51.7852 29.348 52.4207 29.8092 52.4219 30.4591C52.4232 31.1103 51.7897 31.5722 51.3723 31.9913C50.711 32.6555 50.0496 33.3192 49.3884 33.9831C48.2739 35.1016 47.1596 36.22 46.0453 37.3391C46.0478 38.7052 46.0504 40.0715 46.0529 41.4381C46.0545 42.3043 46.0561 43.171 46.0578 44.0376C46.0588 44.5897 46.1518 45.2338 45.723 45.6648C45.295 46.0944 44.6486 46.0046 44.0965 46.0057C43.2298 46.0073 42.3633 46.0089 41.4966 46.0105C40.13 46.0131 38.7637 46.0156 37.397 46.0182C36.2827 47.1366 35.1684 48.2556 34.0539 49.3741C33.3921 50.038 32.7313 50.7019 32.0701 51.3656C31.6526 51.7846 31.1916 52.4197 30.5415 52.421C29.8902 52.4222 29.4283 51.7888 29.0093 51.3713C28.3454 50.71 27.6817 50.0486 27.0179 49.3872C25.8994 48.2729 24.7809 47.1581 23.6624 46.0437C22.2958 46.0463 20.9291 46.0488 19.5628 46.0514C18.6961 46.053 17.8291 46.0546 16.9624 46.0562C16.4103 46.0573 15.7657 46.1507 15.3352 45.7214C14.9056 45.2934 14.9954 44.6472 14.9944 44.0955C14.9928 43.2288 14.9911 42.3622 14.9895 41.496C14.987 40.1294 14.9844 38.7631 14.9819 37.3969C13.8904 36.309 12.7987 35.2215 11.7072 34.1341C11.0165 33.4458 10.3257 32.7577 9.63484 32.0691C9.2149 31.6505 8.58083 31.1897 8.57962 30.5408Z" fill="white"/>
</mask>
<g mask="url(#mask1_111_2476)">
<mask id="mask2_111_2476" style="mask-type:luminance" maskUnits="userSpaceOnUse" x="8" y="8" width="45" height="45">
<path d="M17.2522 17.301C17.2546 18.6289 17.2571 19.9569 17.2596 21.2848C17.2616 22.3461 17.6032 24.0822 16.9039 24.975C16.0739 26.035 14.9355 26.9513 13.986 27.9043C13.1124 28.7813 12.2386 29.6586 11.365 30.5356C12.2419 31.4094 13.1189 32.2836 13.9958 33.1572C14.9488 34.107 16.0907 35.0181 16.9245 36.0755C17.6275 36.9659 17.2921 38.7036 17.294 39.7644C17.2965 41.0922 17.299 42.4201 17.3015 43.7484C18.6292 43.7459 19.9575 43.7435 21.286 43.741C22.3471 43.739 24.0834 43.3969 24.976 44.0962C26.036 44.9261 26.9524 46.0651 27.9053 47.0144C28.7823 47.8882 29.6592 48.7618 30.5363 49.6359C31.4104 48.7585 32.284 47.8816 33.1578 47.0046C34.1071 46.0512 35.0188 44.9094 36.0756 44.0755C36.966 43.3725 38.7046 43.7085 39.7649 43.7065C41.0932 43.7041 42.4215 43.7016 43.7494 43.6991C43.7469 42.3708 43.7445 41.0429 43.742 39.7151C43.74 38.6538 43.3984 36.9179 44.0972 36.0249C44.9271 34.9649 46.0661 34.0487 47.0154 33.0957C47.8892 32.2188 48.7629 31.3414 49.6366 30.4643C48.7597 29.5905 47.8826 28.7165 47.0056 27.8428C46.0522 26.8931 44.9109 25.9816 44.0765 24.9244C43.3739 24.0339 43.7095 22.2963 43.7075 21.2355C43.7051 19.9076 43.7026 18.5797 43.7001 17.2517C42.3722 17.2542 41.0439 17.2567 39.7156 17.2591C38.6545 17.2611 36.9176 17.6033 36.025 16.9039C34.965 16.0738 34.0491 14.935 33.0963 13.9856C32.2192 13.1118 31.3424 12.238 30.465 11.364C29.5912 12.2413 28.7175 13.1183 27.8437 13.9954C26.8939 14.9487 25.9828 16.0904 24.9254 16.9246C24.0354 17.6274 22.2969 17.2916 21.2367 17.2936C19.9082 17.296 18.5799 17.2985 17.2522 17.301ZM8.57962 30.5408C8.57842 29.8932 9.21165 29.4275 9.62914 29.0085C10.3174 28.3178 11.0057 27.6269 11.6938 26.9361C12.7813 25.8444 13.8689 24.7527 14.9563 23.6611C14.9538 22.2948 14.9512 20.9283 14.9487 19.562C14.947 18.6955 14.9454 17.8288 14.9438 16.9623C14.9428 16.4101 14.8494 15.766 15.2786 15.3351C15.7066 14.9054 16.3528 14.9953 16.9045 14.9943C17.7712 14.9927 18.6383 14.991 19.5049 14.9894C20.8712 14.9869 22.2379 14.9843 23.6045 14.9818C24.7189 13.8631 25.8332 12.7445 26.9475 11.6258C27.6089 10.9619 28.2701 10.2981 28.9315 9.63438C29.3485 9.21551 29.8094 8.58002 30.4598 8.57881C31.1108 8.5776 31.5732 9.21101 31.9923 9.62868C32.656 10.2899 33.3193 10.9513 33.9835 11.6127C35.1022 12.7272 36.2207 13.8417 37.3392 14.9562C38.7058 14.9537 40.0721 14.9511 41.4388 14.9486C42.3054 14.9469 43.172 14.9453 44.0386 14.9437C44.5912 14.9427 45.2353 14.8493 45.6663 15.2785C46.0958 15.7067 46.0062 16.3529 46.0072 16.9044C46.0088 17.7709 46.0104 18.6376 46.012 19.5041C46.0146 20.8704 46.0171 22.2369 46.0197 23.6032C47.1382 24.7177 48.2566 25.8322 49.3753 26.9467C50.039 27.6081 50.7029 28.2695 51.3666 28.9307C51.7852 29.348 52.4207 29.8092 52.4219 30.4591C52.4232 31.1103 51.7897 31.5722 51.3723 31.9913C50.711 32.6555 50.0496 33.3192 49.3884 33.9831C48.2739 35.1016 47.1596 36.22 46.0453 37.3391C46.0478 38.7052 46.0504 40.0715 46.0529 41.4381C46.0545 42.3043 46.0561 43.171 46.0578 44.0376C46.0588 44.5897 46.1518 45.2338 45.723 45.6648C45.295 46.0944 44.6486 46.0046 44.0965 46.0057C43.2298 46.0073 42.3633 46.0089 41.4966 46.0105C40.13 46.0131 38.7637 46.0156 37.397 46.0182C36.2827 47.1366 35.1684 48.2556 34.0539 49.3741C33.3921 50.038 32.7313 50.7019 32.0701 51.3656C31.6526 51.7846 31.1916 52.4197 30.5415 52.421C29.8902 52.4222 29.4283 51.7888 29.0093 51.3713C28.3454 50.71 27.6817 50.0486 27.0179 49.3872C25.8994 48.2729 24.7809 47.1581 23.6624 46.0437C22.2958 46.0463 20.9291 46.0488 19.5628 46.0514C18.6961 46.053 17.8291 46.0546 16.9624 46.0562C16.4103 46.0573 15.7657 46.1507 15.3352 45.7214C14.9056 45.2934 14.9954 44.6472 14.9944 44.0955C14.9928 43.2288 14.9911 42.3622 14.9895 41.496C14.987 40.1294 14.9844 38.7631 14.9819 37.3969C13.8904 36.309 12.7987 35.2215 11.7072 34.1341C11.0165 33.4458 10.3257 32.7577 9.63484 32.0691C9.2149 31.6505 8.58083 31.1897 8.57962 30.5408Z" fill="white"/>
</mask>
<g mask="url(#mask2_111_2476)">
<path d="M74.2914 31.9638L31.9646 -13.2906L-13.2898 29.0362L29.037 74.2905L74.2914 31.9638Z" fill="#102F3C"/>
</g>
</g>
</g>
<mask id="mask3_111_2476" style="mask-type:luminance" maskUnits="userSpaceOnUse" x="48" y="17" width="13" height="27">
<path d="M60.4763 17.7501L60.5235 43.0925L48.9254 43.1141L48.8782 17.7717L60.4763 17.7501Z" fill="white"/>
</mask>
<g mask="url(#mask3_111_2476)">
<mask id="mask4_111_2476" style="mask-type:luminance" maskUnits="userSpaceOnUse" x="48" y="17" width="13" height="27">
<path d="M48.9822 42.0031C48.9802 40.9181 48.7043 39.6008 49.4555 38.7374C50.2649 37.8075 51.2163 36.9701 52.0858 36.0973C53.9613 34.2147 55.8372 32.3317 57.7128 30.4493C55.2827 28.0282 52.8525 25.6071 50.4226 23.1862C50.0648 22.8296 49.6348 22.4833 49.3195 22.087C48.7849 21.4164 48.9422 20.5577 48.9407 19.7404C48.9401 19.4013 48.8772 18.9525 48.9798 18.6214C49.2335 17.7999 50.2767 17.4801 50.9072 18.1088C51.5032 18.7025 51.2485 19.9981 51.2499 20.7537C53.9244 23.4181 56.5986 26.0826 59.2736 28.7471C59.6079 29.0805 60.1173 29.4463 60.3469 29.8747C60.7767 30.6769 60.1968 31.225 59.686 31.7379C58.1764 33.2531 56.6669 34.7681 55.157 36.2838C53.8667 37.5789 52.5763 38.8739 51.2861 40.1691C51.2872 40.7654 51.3646 41.4086 51.2895 41.9988C51.1086 43.4183 48.985 43.5437 48.9822 42.0031Z" fill="white"/>
</mask>
<g mask="url(#mask4_111_2476)">
<mask id="mask5_111_2476" style="mask-type:luminance" maskUnits="userSpaceOnUse" x="48" y="17" width="13" height="27">
<path d="M48.9822 42.0031C48.9802 40.9181 48.7043 39.6008 49.4555 38.7374C50.2649 37.8075 51.2163 36.9701 52.0858 36.0973C53.9613 34.2147 55.8372 32.3317 57.7128 30.4493C55.2827 28.0282 52.8525 25.6071 50.4226 23.1862C50.0648 22.8296 49.6348 22.4833 49.3195 22.087C48.7849 21.4164 48.9422 20.5577 48.9407 19.7404C48.9401 19.4013 48.8772 18.9525 48.9798 18.6214C49.2335 17.7999 50.2767 17.4801 50.9072 18.1088C51.5032 18.7025 51.2485 19.9981 51.2499 20.7537C53.9244 23.4181 56.5986 26.0826 59.2736 28.7471C59.6079 29.0805 60.1173 29.4463 60.3469 29.8747C60.7767 30.6769 60.1968 31.225 59.686 31.7379C58.1764 33.2531 56.6669 34.7681 55.157 36.2838C53.8667 37.5789 52.5763 38.8739 51.2861 40.1691C51.2872 40.7654 51.3646 41.4086 51.2895 41.9988C51.1086 43.4183 48.985 43.5437 48.9822 42.0031Z" fill="white"/>
</mask>
<g mask="url(#mask5_111_2476)">
<path d="M73.7761 31.3856L55.1225 11.4417L35.6875 29.6192L54.3412 49.5633L73.7761 31.3856Z" fill="#102F3C"/>
</g>
</g>
</g>
<mask id="mask6_111_2476" style="mask-type:luminance" maskUnits="userSpaceOnUse" x="17" y="0" width="27" height="13">
<path d="M43.1382 0.47641L43.16 12.1659L17.7719 12.2132L17.7501 0.523715L43.1382 0.47641Z" fill="white"/>
</mask>
<g mask="url(#mask6_111_2476)">
<mask id="mask7_111_2476" style="mask-type:luminance" maskUnits="userSpaceOnUse" x="17" y="0" width="27" height="13">
<path d="M17.7731 10.91C17.7703 9.40979 19.7897 9.7526 20.7546 9.7508C23.4189 7.0762 26.0834 4.40179 28.7479 1.72737C29.0815 1.39266 29.4471 0.883455 29.8755 0.653989C30.6779 0.224054 31.226 0.803977 31.7383 1.31458C33.2535 2.82432 34.7691 4.33405 36.2843 5.84361C37.5793 7.13401 38.8745 8.42423 40.1696 9.71463C40.9207 9.71323 42.2207 9.45431 42.8159 10.0475C43.4494 10.6788 43.1276 11.715 42.3108 11.9768C41.9832 12.0818 41.5241 12.0195 41.1916 12.0201C40.3726 12.0216 39.5179 12.1837 38.8434 11.6501C38.4456 11.3355 38.0983 10.9078 37.7401 10.5511C35.31 8.12996 32.8799 5.70904 30.4499 3.28795C28.4244 5.32083 26.3989 7.3539 24.3739 9.38679C23.6248 10.1388 22.9026 11.0434 22.0678 11.7015C21.1809 12.4002 17.776 12.4929 17.7731 10.91Z" fill="white"/>
</mask>
<g mask="url(#mask7_111_2476)">
<mask id="mask8_111_2476" style="mask-type:luminance" maskUnits="userSpaceOnUse" x="17" y="0" width="27" height="13">
<path d="M17.7731 10.91C17.7703 9.40979 19.7897 9.7526 20.7546 9.7508C23.4189 7.0762 26.0834 4.40179 28.7479 1.72737C29.0815 1.39266 29.4471 0.883455 29.8755 0.653989C30.6779 0.224054 31.226 0.803977 31.7383 1.31458C33.2535 2.82432 34.7691 4.33405 36.2843 5.84361C37.5793 7.13401 38.8745 8.42423 40.1696 9.71463C40.9207 9.71323 42.2207 9.45431 42.8159 10.0475C43.4494 10.6788 43.1276 11.715 42.3108 11.9768C41.9832 12.0818 41.5241 12.0195 41.1916 12.0201C40.3726 12.0216 39.5179 12.1837 38.8434 11.6501C38.4456 11.3355 38.0983 10.9078 37.7401 10.5511C35.31 8.12996 32.8799 5.70904 30.4499 3.28795C28.4244 5.32083 26.3989 7.3539 24.3739 9.38679C23.6248 10.1388 22.9026 11.0434 22.0678 11.7015C21.1809 12.4002 17.776 12.4929 17.7731 10.91Z" fill="white"/>
</mask>
<g mask="url(#mask8_111_2476)">
<path d="M49.5494 6.74285L31.4729 -12.5839L11.6567 5.95033L29.7332 25.2771L49.5494 6.74285Z" fill="#102F3C"/>
</g>
</g>
</g>
<mask id="mask9_111_2476" style="mask-type:luminance" maskUnits="userSpaceOnUse" x="0" y="17" width="13" height="27">
<path d="M12.0746 17.8403L12.1219 43.2284L0.523735 43.25L0.47643 17.8619L12.0746 17.8403Z" fill="white"/>
</mask>
<g mask="url(#mask9_111_2476)">
<mask id="mask10_111_2476" style="mask-type:luminance" maskUnits="userSpaceOnUse" x="0" y="17" width="13" height="27">
<path d="M0.503302 30.5559C0.501898 29.8025 1.4549 29.1222 1.93488 28.6402C2.9682 27.6034 4.0008 26.5664 5.03411 25.5296C6.59459 23.9633 8.15471 22.3972 9.71536 20.8311C9.71396 20.0799 9.45487 18.7801 10.0479 18.1849C10.6796 17.551 11.7158 17.873 11.9775 18.6903C12.0823 19.0178 12.02 19.4765 12.0206 19.8092C12.0222 20.6284 12.1847 21.4827 11.6506 22.1572C11.3364 22.555 10.9088 22.9024 10.5518 23.2605C8.1307 25.6904 5.70978 28.1206 3.28868 30.5507C5.71882 32.9718 8.14878 35.3927 10.5789 37.8138C10.9367 38.1702 11.3661 38.5169 11.6818 38.9126C12.2164 39.5834 12.0591 40.4425 12.0606 41.2594C12.0612 41.5987 12.1238 42.0475 12.0217 42.3788C11.7674 43.2003 10.7247 43.5199 10.0939 42.8914C9.49816 42.2977 9.75295 41.0021 9.75154 40.2465C8.18506 38.6859 6.61911 37.1257 5.05281 35.5653C4.03494 34.5512 3.01707 33.5371 1.99919 32.523C1.50884 32.0345 0.504733 31.3239 0.503302 30.5559Z" fill="white"/>
</mask>
<g mask="url(#mask10_111_2476)">
<mask id="mask11_111_2476" style="mask-type:luminance" maskUnits="userSpaceOnUse" x="0" y="17" width="13" height="27">
<path d="M0.503302 30.5559C0.501898 29.8025 1.4549 29.1222 1.93488 28.6402C2.9682 27.6034 4.0008 26.5664 5.03411 25.5296C6.59459 23.9633 8.15471 22.3972 9.71536 20.8311C9.71396 20.0799 9.45487 18.7801 10.0479 18.1849C10.6796 17.551 11.7158 17.873 11.9775 18.6903C12.0823 19.0178 12.02 19.4765 12.0206 19.8092C12.0222 20.6284 12.1847 21.4827 11.6506 22.1572C11.3364 22.555 10.9088 22.9024 10.5518 23.2605C8.1307 25.6904 5.70978 28.1206 3.28868 30.5507C5.71882 32.9718 8.14878 35.3927 10.5789 37.8138C10.9367 38.1702 11.3661 38.5169 11.6818 38.9126C12.2164 39.5834 12.0591 40.4425 12.0606 41.2594C12.0612 41.5987 12.1238 42.0475 12.0217 42.3788C11.7674 43.2003 10.7247 43.5199 10.0939 42.8914C9.49816 42.2977 9.75295 41.0021 9.75154 40.2465C8.18506 38.6859 6.61911 37.1257 5.05281 35.5653C4.03494 34.5512 3.01707 33.5371 1.99919 32.523C1.50884 32.0345 0.504733 31.3239 0.503302 30.5559Z" fill="white"/>
</mask>
<g mask="url(#mask11_111_2476)">
<path d="M25.1554 31.4239L6.72964 11.7238L-12.4506 29.6632L5.975 49.3633L25.1554 31.4239Z" fill="#102F3C"/>
</g>
</g>
</g>
<mask id="mask12_111_2476" style="mask-type:luminance" maskUnits="userSpaceOnUse" x="17" y="48" width="27" height="13">
<path d="M43.2282 48.7868L43.25 60.4763L17.8619 60.5236L17.8401 48.8341L43.2282 48.7868Z" fill="white"/>
</mask>
<g mask="url(#mask12_111_2476)">
<mask id="mask13_111_2476" style="mask-type:luminance" maskUnits="userSpaceOnUse" x="17" y="48" width="27" height="13">
<path d="M17.8461 50.1373C17.8432 48.5543 21.2361 48.6352 22.1319 49.3238C22.9742 49.9717 23.701 50.8876 24.4526 51.6359C26.4852 53.6614 28.5182 55.6869 30.5513 57.7123C32.9722 55.2821 35.3933 52.8522 37.8144 50.422C38.1712 50.0639 38.5175 49.6345 38.9136 49.3186C39.584 48.784 40.4431 48.9413 41.2604 48.9398C41.5996 48.9392 42.0485 48.8768 42.3797 48.9789C43.2007 49.233 43.5205 50.2758 42.892 50.9066C42.2986 51.5028 41.0027 51.248 40.2469 51.2494C37.5825 53.9238 34.9182 56.5982 32.2537 59.2727C31.9201 59.6075 31.5543 60.1164 31.1259 60.3459C30.3235 60.7762 29.7756 60.1959 29.2631 59.6854C27.7475 58.1755 26.2323 56.666 24.7173 55.1564C23.4221 53.8662 22.127 52.576 20.832 51.2856C19.8658 51.2874 17.8489 51.635 17.8461 50.1373Z" fill="white"/>
</mask>
<g mask="url(#mask13_111_2476)">
<mask id="mask14_111_2476" style="mask-type:luminance" maskUnits="userSpaceOnUse" x="17" y="48" width="27" height="13">
<path d="M17.8461 50.1373C17.8432 48.5543 21.2361 48.6352 22.1319 49.3238C22.9742 49.9717 23.701 50.8876 24.4526 51.6359C26.4852 53.6614 28.5182 55.6869 30.5513 57.7123C32.9722 55.2821 35.3933 52.8522 37.8144 50.422C38.1712 50.0639 38.5175 49.6345 38.9136 49.3186C39.584 48.784 40.4431 48.9413 41.2604 48.9398C41.5996 48.9392 42.0485 48.8768 42.3797 48.9789C43.2007 49.233 43.5205 50.2758 42.892 50.9066C42.2986 51.5028 41.0027 51.248 40.2469 51.2494C37.5825 53.9238 34.9182 56.5982 32.2537 59.2727C31.9201 59.6075 31.5543 60.1164 31.1259 60.3459C30.3235 60.7762 29.7756 60.1959 29.2631 59.6854C27.7475 58.1755 26.2323 56.666 24.7173 55.1564C23.4221 53.8662 22.127 52.576 20.832 51.2856C19.8658 51.2874 17.8489 51.635 17.8461 50.1373Z" fill="white"/>
</mask>
<g mask="url(#mask14_111_2476)">
<path d="M49.6367 55.0492L31.5613 35.7237L11.7465 54.2566L29.8219 73.5821L49.6367 55.0492Z" fill="#102F3C"/>
</g>
</g>
</g>
<mask id="mask15_111_2476" style="mask-type:luminance" maskUnits="userSpaceOnUse" x="23" y="23" width="15" height="15">
<path d="M37.1543 23.8209L37.1791 37.1542L23.8458 37.1791L23.821 23.8458L37.1543 23.8209Z" fill="white"/>
</mask>
<g mask="url(#mask15_111_2476)">
<mask id="mask16_111_2476" style="mask-type:luminance" maskUnits="userSpaceOnUse" x="23" y="23" width="15" height="15">
<path d="M29.988 34.089L23.8677 37.158C24.409 36.068 24.9504 34.9779 25.4917 33.8878C25.939 32.988 27.0417 31.564 27.0393 30.5064C27.0369 29.4801 25.9668 28.1037 25.5305 27.2326C24.9676 26.1107 24.4053 24.9887 23.8429 23.8667C24.8986 24.3913 25.955 24.9159 27.0106 25.4406C27.949 25.9066 29.4012 27.0287 30.4941 27.0272C31.5584 27.0259 32.9591 25.9351 33.8697 25.4787C34.9578 24.933 36.0457 24.3875 37.1338 23.842C36.6092 24.898 36.0846 25.9542 35.5602 27.0102C35.094 27.9484 33.9719 29.4008 33.9736 30.4935C33.975 31.5578 35.0653 32.9587 35.5218 33.8691C36.0677 34.9572 36.613 36.0453 37.1586 37.1332C36.0347 36.5747 34.9103 36.0163 33.7864 35.4582C32.9778 35.0566 30.9542 33.5694 29.988 34.089Z" fill="white"/>
</mask>
<g mask="url(#mask16_111_2476)">
<mask id="mask17_111_2476" style="mask-type:luminance" maskUnits="userSpaceOnUse" x="23" y="23" width="15" height="15">
<path d="M29.988 34.089L23.8677 37.158C24.409 36.068 24.9504 34.9779 25.4917 33.8878C25.939 32.988 27.0417 31.564 27.0393 30.5064C27.0369 29.4801 25.9668 28.1037 25.5305 27.2326C24.9676 26.1107 24.4053 24.9887 23.8429 23.8667C24.8986 24.3913 25.955 24.9159 27.0106 25.4406C27.949 25.9066 29.4012 27.0287 30.4941 27.0272C31.5584 27.0259 32.9591 25.9351 33.8697 25.4787C34.9578 24.933 36.0457 24.3875 37.1338 23.842C36.6092 24.898 36.0846 25.9542 35.5602 27.0102C35.094 27.9484 33.9719 29.4008 33.9736 30.4935C33.975 31.5578 35.0653 32.9587 35.5218 33.8691C36.0677 34.9572 36.613 36.0453 37.1586 37.1332C36.0347 36.5747 34.9103 36.0163 33.7864 35.4582C32.9778 35.0566 30.9542 33.5694 29.988 34.089Z" fill="white"/>
</mask>
<g mask="url(#mask17_111_2476)">
<path d="M43.7761 30.9438L30.9444 17.2247L17.2254 30.0563L30.0569 43.7755L43.7761 30.9438Z" fill="#102F3C"/>
<path d="M43.7761 30.9438L30.9444 17.2247L17.2254 30.0563L30.0569 43.7755L43.7761 30.9438Z" fill="#102F3C"/>
</g>
</g>
</g>
</svg>
