<svg width="61" height="61" viewBox="0 0 61 61" fill="none" xmlns="http://www.w3.org/2000/svg">
<mask id="mask0_111_2475" style="mask-type:luminance" maskUnits="userSpaceOnUse" x="8" y="8" width="45" height="45">
<path d="M52.3108 8.49567L52.3926 52.4225L8.46577 52.5044L8.38392 8.57751L52.3108 8.49567Z" fill="white"/>
</mask>
<g mask="url(#mask0_111_2475)">
<mask id="mask1_111_2475" style="mask-type:luminance" maskUnits="userSpaceOnUse" x="8" y="8" width="45" height="45">
<path d="M17.1404 17.301C17.1429 18.6289 17.1453 19.9569 17.1478 21.2848C17.1498 22.3461 17.4914 24.0822 16.7921 24.975C15.9621 26.035 14.8237 26.9513 13.8743 27.9043C13.0006 28.7813 12.1268 29.6586 11.2532 30.5356C12.1301 31.4094 13.0072 32.2836 13.884 33.1572C14.837 34.107 15.9789 35.0181 16.8127 36.0755C17.5157 36.9659 17.1803 38.7036 17.1822 39.7644C17.1847 41.0922 17.1872 42.4201 17.1897 43.7484C18.5174 43.7459 19.8457 43.7435 21.1742 43.741C22.2353 43.739 23.9716 43.3969 24.8642 44.0962C25.9242 44.9261 26.8407 46.0651 27.7935 47.0144C28.6705 47.8882 29.5474 48.7618 30.4245 49.6359C31.2986 48.7585 32.1722 47.8816 33.046 47.0046C33.9953 46.0512 34.907 44.9094 35.9639 44.0755C36.8542 43.3725 38.5929 43.7085 39.6531 43.7065C40.9814 43.7041 42.3097 43.7016 43.6376 43.6991C43.6351 42.3708 43.6327 41.0429 43.6302 39.7151C43.6282 38.6538 43.2866 36.9179 43.9854 36.0249C44.8153 34.9649 45.9543 34.0487 46.9036 33.0957C47.7774 32.2188 48.6512 31.3414 49.5248 30.4643C48.6479 29.5905 47.7708 28.7165 46.8938 27.8428C45.9404 26.8931 44.7991 25.9816 43.9647 24.9244C43.2621 24.0339 43.5977 22.2963 43.5958 21.2355C43.5933 19.9076 43.5908 18.5797 43.5883 17.2517C42.2604 17.2542 40.9321 17.2567 39.6038 17.2591C38.5427 17.2611 36.8058 17.6033 35.9132 16.9039C34.8532 16.0738 33.9373 14.935 32.9845 13.9856C32.1075 13.1118 31.2306 12.238 30.3532 11.364C29.4794 12.2413 28.6058 13.1183 27.732 13.9954C26.7821 14.9487 25.871 16.0904 24.8136 16.9246C23.9236 17.6274 22.1852 17.2916 21.1249 17.2936C19.7965 17.296 18.4682 17.2985 17.1404 17.301ZM8.46784 30.5408C8.46663 29.8932 9.09986 29.4275 9.51735 29.0085C10.2056 28.3178 10.8939 27.6269 11.582 26.9361C12.6695 25.8444 13.7571 24.7527 14.8445 23.6611C14.842 22.2948 14.8394 20.9283 14.8369 19.562C14.8353 18.6955 14.8336 17.8288 14.832 16.9623C14.831 16.4101 14.7376 15.766 15.1668 15.3351C15.5948 14.9054 16.241 14.9953 16.7927 14.9943C17.6594 14.9927 18.5265 14.991 19.3932 14.9894C20.7594 14.9869 22.1261 14.9843 23.4927 14.9818C24.6071 13.8631 25.7214 12.7445 26.8357 11.6258C27.4971 10.9619 28.1583 10.2981 28.8197 9.63438C29.2367 9.21551 29.6976 8.58002 30.348 8.57881C30.999 8.5776 31.4615 9.21101 31.8805 9.62868C32.5442 10.2899 33.2075 10.9513 33.8718 11.6127C34.9904 12.7272 36.1089 13.8417 37.2274 14.9562C38.594 14.9537 39.9603 14.9511 41.327 14.9486C42.1937 14.9469 43.0602 14.9453 43.9269 14.9437C44.4794 14.9427 45.1235 14.8493 45.5546 15.2785C45.984 15.7067 45.8944 16.3529 45.8954 16.9044C45.897 17.7709 45.8986 18.6376 45.9003 19.5041C45.9028 20.8704 45.9053 22.2369 45.9079 23.6032C47.0264 24.7177 48.1449 25.8322 49.2635 26.9467C49.9272 27.6081 50.5911 28.2695 51.2548 28.9307C51.6735 29.348 52.309 29.8092 52.3102 30.4591C52.3114 31.1103 51.678 31.5722 51.2605 31.9913C50.5992 32.6555 49.9378 33.3192 49.2766 33.9831C48.1621 35.1016 47.0478 36.22 45.9335 37.3391C45.936 38.7052 45.9386 40.0715 45.9411 41.4381C45.9427 42.3043 45.9444 43.171 45.946 44.0376C45.947 44.5897 46.0401 45.2338 45.6112 45.6648C45.1832 46.0944 44.5368 46.0046 43.9847 46.0057C43.118 46.0073 42.2515 46.0089 41.3849 46.0105C40.0182 46.0131 38.6519 46.0156 37.2853 46.0182C36.1709 47.1366 35.0566 48.2556 33.9421 49.3741C33.2804 50.038 32.6195 50.7019 31.9583 51.3656C31.5408 51.7846 31.0798 52.4197 30.4297 52.421C29.7784 52.4222 29.3165 51.7888 28.8975 51.3713C28.2336 50.71 27.5699 50.0486 26.9061 49.3872C25.7876 48.2729 24.6691 47.1581 23.5506 46.0437C22.184 46.0463 20.8173 46.0488 19.451 46.0514C18.5843 46.053 17.7173 46.0546 16.8506 46.0562C16.2986 46.0573 15.6539 46.1507 15.2235 45.7214C14.7939 45.2934 14.8836 44.6472 14.8826 44.0955C14.881 43.2288 14.8794 42.3622 14.8777 41.496C14.8752 40.1294 14.8727 38.7631 14.8701 37.3969C13.7786 36.309 12.6869 35.2215 11.5954 34.1341C10.9048 33.4458 10.2139 32.7577 9.52306 32.0691C9.10311 31.6505 8.46905 31.1897 8.46784 30.5408Z" fill="white"/>
</mask>
<g mask="url(#mask1_111_2475)">
<mask id="mask2_111_2475" style="mask-type:luminance" maskUnits="userSpaceOnUse" x="8" y="8" width="45" height="45">
<path d="M17.1404 17.301C17.1429 18.6289 17.1453 19.9569 17.1478 21.2848C17.1498 22.3461 17.4914 24.0822 16.7921 24.975C15.9621 26.035 14.8237 26.9513 13.8743 27.9043C13.0006 28.7813 12.1268 29.6586 11.2532 30.5356C12.1301 31.4094 13.0072 32.2836 13.884 33.1572C14.837 34.107 15.9789 35.0181 16.8127 36.0755C17.5157 36.9659 17.1803 38.7036 17.1822 39.7644C17.1847 41.0922 17.1872 42.4201 17.1897 43.7484C18.5174 43.7459 19.8457 43.7435 21.1742 43.741C22.2353 43.739 23.9716 43.3969 24.8642 44.0962C25.9242 44.9261 26.8407 46.0651 27.7935 47.0144C28.6705 47.8882 29.5474 48.7618 30.4245 49.6359C31.2986 48.7585 32.1722 47.8816 33.046 47.0046C33.9953 46.0512 34.907 44.9094 35.9639 44.0755C36.8542 43.3725 38.5929 43.7085 39.6531 43.7065C40.9814 43.7041 42.3097 43.7016 43.6376 43.6991C43.6351 42.3708 43.6327 41.0429 43.6302 39.7151C43.6282 38.6538 43.2866 36.9179 43.9854 36.0249C44.8153 34.9649 45.9543 34.0487 46.9036 33.0957C47.7774 32.2188 48.6512 31.3414 49.5248 30.4643C48.6479 29.5905 47.7708 28.7165 46.8938 27.8428C45.9404 26.8931 44.7991 25.9816 43.9647 24.9244C43.2621 24.0339 43.5977 22.2963 43.5958 21.2355C43.5933 19.9076 43.5908 18.5797 43.5883 17.2517C42.2604 17.2542 40.9321 17.2567 39.6038 17.2591C38.5427 17.2611 36.8058 17.6033 35.9132 16.9039C34.8532 16.0738 33.9373 14.935 32.9845 13.9856C32.1075 13.1118 31.2306 12.238 30.3532 11.364C29.4794 12.2413 28.6058 13.1183 27.732 13.9954C26.7821 14.9487 25.871 16.0904 24.8136 16.9246C23.9236 17.6274 22.1852 17.2916 21.1249 17.2936C19.7965 17.296 18.4682 17.2985 17.1404 17.301ZM8.46784 30.5408C8.46663 29.8932 9.09986 29.4275 9.51735 29.0085C10.2056 28.3178 10.8939 27.6269 11.582 26.9361C12.6695 25.8444 13.7571 24.7527 14.8445 23.6611C14.842 22.2948 14.8394 20.9283 14.8369 19.562C14.8353 18.6955 14.8336 17.8288 14.832 16.9623C14.831 16.4101 14.7376 15.766 15.1668 15.3351C15.5948 14.9054 16.241 14.9953 16.7927 14.9943C17.6594 14.9927 18.5265 14.991 19.3932 14.9894C20.7594 14.9869 22.1261 14.9843 23.4927 14.9818C24.6071 13.8631 25.7214 12.7445 26.8357 11.6258C27.4971 10.9619 28.1583 10.2981 28.8197 9.63438C29.2367 9.21551 29.6976 8.58002 30.348 8.57881C30.999 8.5776 31.4615 9.21101 31.8805 9.62868C32.5442 10.2899 33.2075 10.9513 33.8718 11.6127C34.9904 12.7272 36.1089 13.8417 37.2274 14.9562C38.594 14.9537 39.9603 14.9511 41.327 14.9486C42.1937 14.9469 43.0602 14.9453 43.9269 14.9437C44.4794 14.9427 45.1235 14.8493 45.5546 15.2785C45.984 15.7067 45.8944 16.3529 45.8954 16.9044C45.897 17.7709 45.8986 18.6376 45.9003 19.5041C45.9028 20.8704 45.9053 22.2369 45.9079 23.6032C47.0264 24.7177 48.1449 25.8322 49.2635 26.9467C49.9272 27.6081 50.5911 28.2695 51.2548 28.9307C51.6735 29.348 52.309 29.8092 52.3102 30.4591C52.3114 31.1103 51.678 31.5722 51.2605 31.9913C50.5992 32.6555 49.9378 33.3192 49.2766 33.9831C48.1621 35.1016 47.0478 36.22 45.9335 37.3391C45.936 38.7052 45.9386 40.0715 45.9411 41.4381C45.9427 42.3043 45.9444 43.171 45.946 44.0376C45.947 44.5897 46.0401 45.2338 45.6112 45.6648C45.1832 46.0944 44.5368 46.0046 43.9847 46.0057C43.118 46.0073 42.2515 46.0089 41.3849 46.0105C40.0182 46.0131 38.6519 46.0156 37.2853 46.0182C36.1709 47.1366 35.0566 48.2556 33.9421 49.3741C33.2804 50.038 32.6195 50.7019 31.9583 51.3656C31.5408 51.7846 31.0798 52.4197 30.4297 52.421C29.7784 52.4222 29.3165 51.7888 28.8975 51.3713C28.2336 50.71 27.5699 50.0486 26.9061 49.3872C25.7876 48.2729 24.6691 47.1581 23.5506 46.0437C22.184 46.0463 20.8173 46.0488 19.451 46.0514C18.5843 46.053 17.7173 46.0546 16.8506 46.0562C16.2986 46.0573 15.6539 46.1507 15.2235 45.7214C14.7939 45.2934 14.8836 44.6472 14.8826 44.0955C14.881 43.2288 14.8794 42.3622 14.8777 41.496C14.8752 40.1294 14.8727 38.7631 14.8701 37.3969C13.7786 36.309 12.6869 35.2215 11.5954 34.1341C10.9048 33.4458 10.2139 32.7577 9.52306 32.0691C9.10311 31.6505 8.46905 31.1897 8.46784 30.5408Z" fill="white"/>
</mask>
<g mask="url(#mask2_111_2475)">
<path d="M74.1796 31.9638L31.8528 -13.2906L-13.4016 29.0362L28.9252 74.2905L74.1796 31.9638Z" fill="white"/>
</g>
</g>
</g>
<mask id="mask3_111_2475" style="mask-type:luminance" maskUnits="userSpaceOnUse" x="48" y="17" width="13" height="27">
<path d="M60.3646 17.7501L60.4118 43.0925L48.8137 43.1141L48.7664 17.7717L60.3646 17.7501Z" fill="white"/>
</mask>
<g mask="url(#mask3_111_2475)">
<mask id="mask4_111_2475" style="mask-type:luminance" maskUnits="userSpaceOnUse" x="48" y="17" width="13" height="27">
<path d="M48.8705 42.0031C48.8684 40.9181 48.5925 39.6008 49.3438 38.7374C50.1531 37.8075 51.1046 36.9701 51.9741 36.0973C53.8495 34.2147 55.7255 32.3317 57.6011 30.4493C55.1709 28.0282 52.7408 25.6071 50.3108 23.1862C49.9531 22.8296 49.5231 22.4833 49.2077 22.087C48.6732 21.4164 48.8305 20.5577 48.829 19.7404C48.8283 19.4013 48.7654 18.9525 48.8681 18.6214C49.1218 17.7999 50.165 17.4801 50.7955 18.1088C51.3914 18.7025 51.1368 19.9981 51.1382 20.7537C53.8126 23.4181 56.4869 26.0826 59.1618 28.7471C59.4962 29.0805 60.0056 29.4463 60.2352 29.8747C60.665 30.6769 60.085 31.225 59.5743 31.7379C58.0647 33.2531 56.5552 34.7681 55.0452 36.2838C53.755 37.5789 52.4646 38.8739 51.1744 40.1691C51.1755 40.7654 51.2529 41.4086 51.1778 41.9988C50.9969 43.4183 48.8733 43.5437 48.8705 42.0031Z" fill="white"/>
</mask>
<g mask="url(#mask4_111_2475)">
<mask id="mask5_111_2475" style="mask-type:luminance" maskUnits="userSpaceOnUse" x="48" y="17" width="13" height="27">
<path d="M48.8705 42.0031C48.8684 40.9181 48.5925 39.6008 49.3438 38.7374C50.1531 37.8075 51.1046 36.9701 51.9741 36.0973C53.8495 34.2147 55.7255 32.3317 57.6011 30.4493C55.1709 28.0282 52.7408 25.6071 50.3108 23.1862C49.9531 22.8296 49.5231 22.4833 49.2077 22.087C48.6732 21.4164 48.8305 20.5577 48.829 19.7404C48.8283 19.4013 48.7654 18.9525 48.8681 18.6214C49.1218 17.7999 50.165 17.4801 50.7955 18.1088C51.3914 18.7025 51.1368 19.9981 51.1382 20.7537C53.8126 23.4181 56.4869 26.0826 59.1618 28.7471C59.4962 29.0805 60.0056 29.4463 60.2352 29.8747C60.665 30.6769 60.085 31.225 59.5743 31.7379C58.0647 33.2531 56.5552 34.7681 55.0452 36.2838C53.755 37.5789 52.4646 38.8739 51.1744 40.1691C51.1755 40.7654 51.2529 41.4086 51.1778 41.9988C50.9969 43.4183 48.8733 43.5437 48.8705 42.0031Z" fill="white"/>
</mask>
<g mask="url(#mask5_111_2475)">
<path d="M73.6643 31.3856L55.0107 11.4417L35.5757 29.6192L54.2295 49.5633L73.6643 31.3856Z" fill="white"/>
</g>
</g>
</g>
<mask id="mask6_111_2475" style="mask-type:luminance" maskUnits="userSpaceOnUse" x="17" y="0" width="27" height="13">
<path d="M43.0264 0.47641L43.0482 12.1659L17.6601 12.2132L17.6383 0.523715L43.0264 0.47641Z" fill="white"/>
</mask>
<g mask="url(#mask6_111_2475)">
<mask id="mask7_111_2475" style="mask-type:luminance" maskUnits="userSpaceOnUse" x="17" y="0" width="27" height="13">
<path d="M17.6613 10.91C17.6585 9.40979 19.6779 9.7526 20.6428 9.7508C23.3071 7.0762 25.9716 4.40179 28.6361 1.72737C28.9697 1.39266 29.3353 0.883455 29.7637 0.653989C30.5661 0.224054 31.1142 0.803977 31.6265 1.31458C33.1417 2.82432 34.6573 4.33405 36.1725 5.84361C37.4675 7.13401 38.7627 8.42423 40.0578 9.71463C40.8089 9.71323 42.1089 9.45431 42.7041 10.0475C43.3376 10.6788 43.0158 11.715 42.199 11.9768C41.8714 12.0818 41.4123 12.0195 41.0798 12.0201C40.2608 12.0216 39.4062 12.1837 38.7316 11.6501C38.3338 11.3355 37.9865 10.9078 37.6284 10.5511C35.1982 8.12996 32.7681 5.70904 30.3381 3.28795C28.3126 5.32083 26.2871 7.3539 24.2621 9.38679C23.513 10.1388 22.7908 11.0434 21.9561 11.7015C21.0691 12.4002 17.6642 12.4929 17.6613 10.91Z" fill="white"/>
</mask>
<g mask="url(#mask7_111_2475)">
<mask id="mask8_111_2475" style="mask-type:luminance" maskUnits="userSpaceOnUse" x="17" y="0" width="27" height="13">
<path d="M17.6613 10.91C17.6585 9.40979 19.6779 9.7526 20.6428 9.7508C23.3071 7.0762 25.9716 4.40179 28.6361 1.72737C28.9697 1.39266 29.3353 0.883455 29.7637 0.653989C30.5661 0.224054 31.1142 0.803977 31.6265 1.31458C33.1417 2.82432 34.6573 4.33405 36.1725 5.84361C37.4675 7.13401 38.7627 8.42423 40.0578 9.71463C40.8089 9.71323 42.1089 9.45431 42.7041 10.0475C43.3376 10.6788 43.0158 11.715 42.199 11.9768C41.8714 12.0818 41.4123 12.0195 41.0798 12.0201C40.2608 12.0216 39.4062 12.1837 38.7316 11.6501C38.3338 11.3355 37.9865 10.9078 37.6284 10.5511C35.1982 8.12996 32.7681 5.70904 30.3381 3.28795C28.3126 5.32083 26.2871 7.3539 24.2621 9.38679C23.513 10.1388 22.7908 11.0434 21.9561 11.7015C21.0691 12.4002 17.6642 12.4929 17.6613 10.91Z" fill="white"/>
</mask>
<g mask="url(#mask8_111_2475)">
<path d="M49.4376 6.74285L31.3611 -12.5839L11.5449 5.95033L29.6214 25.2771L49.4376 6.74285Z" fill="white"/>
</g>
</g>
</g>
<mask id="mask9_111_2475" style="mask-type:luminance" maskUnits="userSpaceOnUse" x="0" y="17" width="13" height="27">
<path d="M11.9629 17.8403L12.0102 43.2284L0.41201 43.25L0.364705 17.8619L11.9629 17.8403Z" fill="white"/>
</mask>
<g mask="url(#mask9_111_2475)">
<mask id="mask10_111_2475" style="mask-type:luminance" maskUnits="userSpaceOnUse" x="0" y="17" width="12" height="27">
<path d="M0.391546 30.5559C0.390142 29.8025 1.34314 29.1222 1.82312 28.6402C2.85644 27.6034 3.88904 26.5664 4.92236 25.5296C6.48283 23.9633 8.04295 22.3972 9.60361 20.8311C9.60221 20.0799 9.34312 18.7801 9.93615 18.1849C10.5678 17.551 11.604 17.873 11.8658 18.6903C11.9706 19.0178 11.9083 19.4765 11.9089 19.8092C11.9104 20.6284 12.0729 21.4827 11.5389 22.1572C11.2246 22.555 10.797 22.9024 10.44 23.2605C8.01895 25.6904 5.59803 28.1206 3.17693 30.5507C5.60707 32.9718 8.03702 35.3927 10.4672 37.8138C10.8249 38.1702 11.2544 38.5169 11.5701 38.9126C12.1047 39.5834 11.9473 40.4425 11.9489 41.2594C11.9495 41.5987 12.012 42.0475 11.9099 42.3788C11.6557 43.2003 10.613 43.5199 9.98218 42.8914C9.3864 42.2977 9.64119 41.0021 9.63978 40.2465C8.0733 38.6859 6.50736 37.1257 4.94106 35.5653C3.92318 34.5512 2.90531 33.5371 1.88744 32.523C1.39709 32.0345 0.392977 31.3239 0.391546 30.5559Z" fill="white"/>
</mask>
<g mask="url(#mask10_111_2475)">
<mask id="mask11_111_2475" style="mask-type:luminance" maskUnits="userSpaceOnUse" x="0" y="17" width="12" height="27">
<path d="M0.391546 30.5559C0.390142 29.8025 1.34314 29.1222 1.82312 28.6402C2.85644 27.6034 3.88904 26.5664 4.92236 25.5296C6.48283 23.9633 8.04295 22.3972 9.60361 20.8311C9.60221 20.0799 9.34312 18.7801 9.93615 18.1849C10.5678 17.551 11.604 17.873 11.8658 18.6903C11.9706 19.0178 11.9083 19.4765 11.9089 19.8092C11.9104 20.6284 12.0729 21.4827 11.5389 22.1572C11.2246 22.555 10.797 22.9024 10.44 23.2605C8.01895 25.6904 5.59803 28.1206 3.17693 30.5507C5.60707 32.9718 8.03702 35.3927 10.4672 37.8138C10.8249 38.1702 11.2544 38.5169 11.5701 38.9126C12.1047 39.5834 11.9473 40.4425 11.9489 41.2594C11.9495 41.5987 12.012 42.0475 11.9099 42.3788C11.6557 43.2003 10.613 43.5199 9.98218 42.8914C9.3864 42.2977 9.64119 41.0021 9.63978 40.2465C8.0733 38.6859 6.50736 37.1257 4.94106 35.5653C3.92318 34.5512 2.90531 33.5371 1.88744 32.523C1.39709 32.0345 0.392977 31.3239 0.391546 30.5559Z" fill="white"/>
</mask>
<g mask="url(#mask11_111_2475)">
<path d="M25.0436 31.4239L6.61791 11.7238L-12.5623 29.6632L5.86327 49.3633L25.0436 31.4239Z" fill="white"/>
</g>
</g>
</g>
<mask id="mask12_111_2475" style="mask-type:luminance" maskUnits="userSpaceOnUse" x="17" y="48" width="27" height="13">
<path d="M43.1164 48.7868L43.1382 60.4763L17.7501 60.5236L17.7283 48.8341L43.1164 48.7868Z" fill="white"/>
</mask>
<g mask="url(#mask12_111_2475)">
<mask id="mask13_111_2475" style="mask-type:luminance" maskUnits="userSpaceOnUse" x="17" y="48" width="27" height="13">
<path d="M17.7343 50.1373C17.7314 48.5543 21.1243 48.6352 22.0201 49.3238C22.8625 49.9717 23.5892 50.8876 24.3408 51.6359C26.3734 53.6614 28.4064 55.6869 30.4395 57.7123C32.8604 55.2821 35.2815 52.8522 37.7026 50.422C38.0594 50.0639 38.4057 49.6345 38.8018 49.3186C39.4722 48.784 40.3313 48.9413 41.1486 48.9398C41.4879 48.9392 41.9367 48.8768 42.2679 48.9789C43.0889 49.233 43.4087 50.2758 42.7802 50.9066C42.1868 51.5028 40.8909 51.248 40.1351 51.2494C37.4707 53.9238 34.8064 56.5982 32.1419 59.2727C31.8083 59.6075 31.4425 60.1164 31.0141 60.3459C30.2117 60.7762 29.6638 60.1959 29.1513 59.6854C27.6357 58.1755 26.1205 56.666 24.6055 55.1564C23.3103 53.8662 22.0153 52.576 20.7202 51.2856C19.754 51.2874 17.7371 51.635 17.7343 50.1373Z" fill="white"/>
</mask>
<g mask="url(#mask13_111_2475)">
<mask id="mask14_111_2475" style="mask-type:luminance" maskUnits="userSpaceOnUse" x="17" y="48" width="27" height="13">
<path d="M17.7343 50.1373C17.7314 48.5543 21.1243 48.6352 22.0201 49.3238C22.8625 49.9717 23.5892 50.8876 24.3408 51.6359C26.3734 53.6614 28.4064 55.6869 30.4395 57.7123C32.8604 55.2821 35.2815 52.8522 37.7026 50.422C38.0594 50.0639 38.4057 49.6345 38.8018 49.3186C39.4722 48.784 40.3313 48.9413 41.1486 48.9398C41.4879 48.9392 41.9367 48.8768 42.2679 48.9789C43.0889 49.233 43.4087 50.2758 42.7802 50.9066C42.1868 51.5028 40.8909 51.248 40.1351 51.2494C37.4707 53.9238 34.8064 56.5982 32.1419 59.2727C31.8083 59.6075 31.4425 60.1164 31.0141 60.3459C30.2117 60.7762 29.6638 60.1959 29.1513 59.6854C27.6357 58.1755 26.1205 56.666 24.6055 55.1564C23.3103 53.8662 22.0153 52.576 20.7202 51.2856C19.754 51.2874 17.7371 51.635 17.7343 50.1373Z" fill="white"/>
</mask>
<g mask="url(#mask14_111_2475)">
<path d="M49.5249 55.0492L31.4495 35.7237L11.6347 54.2566L29.7101 73.5821L49.5249 55.0492Z" fill="white"/>
</g>
</g>
</g>
<mask id="mask15_111_2475" style="mask-type:luminance" maskUnits="userSpaceOnUse" x="23" y="23" width="15" height="15">
<path d="M37.0425 23.8209L37.0674 37.1542L23.7341 37.1791L23.7092 23.8458L37.0425 23.8209Z" fill="white"/>
</mask>
<g mask="url(#mask15_111_2475)">
<mask id="mask16_111_2475" style="mask-type:luminance" maskUnits="userSpaceOnUse" x="23" y="23" width="15" height="15">
<path d="M29.8763 34.089L23.756 37.158C24.2972 36.068 24.8387 34.9779 25.38 33.8878C25.8273 32.988 26.9299 31.564 26.9276 30.5064C26.9252 29.4801 25.8551 28.1037 25.4188 27.2326C24.8559 26.1107 24.2935 24.9887 23.7312 23.8667C24.7869 24.3913 25.8433 24.9159 26.8989 25.4406C27.8373 25.9066 29.2895 27.0287 30.3824 27.0272C31.4467 27.0259 32.8473 25.9351 33.7579 25.4787C34.846 24.933 35.934 24.3875 37.0221 23.842C36.4975 24.898 35.9729 25.9542 35.4485 27.0102C34.9822 27.9484 33.8601 29.4008 33.8618 30.4935C33.8633 31.5578 34.9536 32.9587 35.4101 33.8691C35.956 34.9572 36.5013 36.0453 37.0468 37.1332C35.923 36.5747 34.7986 36.0163 33.6747 35.4582C32.8661 35.0566 30.8424 33.5694 29.8763 34.089Z" fill="white"/>
</mask>
<g mask="url(#mask16_111_2475)">
<mask id="mask17_111_2475" style="mask-type:luminance" maskUnits="userSpaceOnUse" x="23" y="23" width="15" height="15">
<path d="M29.8763 34.089L23.756 37.158C24.2972 36.068 24.8387 34.9779 25.38 33.8878C25.8273 32.988 26.9299 31.564 26.9276 30.5064C26.9252 29.4801 25.8551 28.1037 25.4188 27.2326C24.8559 26.1107 24.2935 24.9887 23.7312 23.8667C24.7869 24.3913 25.8433 24.9159 26.8989 25.4406C27.8373 25.9066 29.2895 27.0287 30.3824 27.0272C31.4467 27.0259 32.8473 25.9351 33.7579 25.4787C34.846 24.933 35.934 24.3875 37.0221 23.842C36.4975 24.898 35.9729 25.9542 35.4485 27.0102C34.9822 27.9484 33.8601 29.4008 33.8618 30.4935C33.8633 31.5578 34.9536 32.9587 35.4101 33.8691C35.956 34.9572 36.5013 36.0453 37.0468 37.1332C35.923 36.5747 34.7986 36.0163 33.6747 35.4582C32.8661 35.0566 30.8424 33.5694 29.8763 34.089Z" fill="white"/>
</mask>
<g mask="url(#mask17_111_2475)">
<path d="M43.6643 30.9438L30.8327 17.2247L17.1137 30.0563L29.9452 43.7755L43.6643 30.9438Z" fill="white"/>
<path d="M43.6643 30.9438L30.8327 17.2247L17.1137 30.0563L29.9452 43.7755L43.6643 30.9438Z" fill="white"/>
</g>
</g>
</g>
</svg>
